<?xml version="1.0" standalone="no"?>
<!DOCTYPE svg PUBLIC "-//W3C//DTD SVG 20010904//EN"
 "http://www.w3.org/TR/2001/REC-SVG-20010904/DTD/svg10.dtd">
<svg version="1.0" xmlns="http://www.w3.org/2000/svg"
 width="1536.000000pt" height="1024.000000pt" viewBox="0 0 1536.000000 1024.000000"
 preserveAspectRatio="xMidYMid meet">

<g transform="translate(0.000000,1024.000000) scale(0.100000,-0.100000)"
fill="#000000" stroke="none">
<path d="M7553 7823 c20 -2 54 -2 75 0 20 2 3 4 -38 4 -41 0 -58 -2 -37 -4z"/>
<path d="M7698 7823 c12 -2 32 -2 45 0 12 2 2 4 -23 4 -25 0 -35 -2 -22 -4z"/>
<path d="M7408 7813 c12 -2 30 -2 40 0 9 3 -1 5 -23 4 -22 0 -30 -2 -17 -4z"/>
<path d="M7918 7813 c6 -2 18 -2 25 0 6 3 1 5 -13 5 -14 0 -19 -2 -12 -5z"/>
<path d="M7313 7803 c9 -2 23 -2 30 0 6 3 -1 5 -18 5 -16 0 -22 -2 -12 -5z"/>
<path d="M7993 7803 c9 -2 25 -2 35 0 9 3 1 5 -18 5 -19 0 -27 -2 -17 -5z"/>
<path d="M7253 7793 c9 -2 23 -2 30 0 6 3 -1 5 -18 5 -16 0 -22 -2 -12 -5z"/>
<path d="M7385 7794 c-266 -36 -491 -98 -726 -199 -152 -65 -408 -210 -467
-265 -18 -16 -36 -30 -40 -30 -22 0 -239 -197 -235 -212 3 -9 -46 -48 -62 -48
-17 0 -47 -35 -38 -44 5 -4 1 -6 -7 -4 -8 2 -14 -2 -13 -8 1 -6 -4 -11 -12
-11 -14 0 30 54 103 123 20 19 28 31 17 25 -12 -5 -54 -47 -95 -93 -92 -104
-113 -131 -74 -95 41 37 49 34 11 -5 -16 -18 -34 -32 -38 -31 -5 2 -27 -21
-49 -50 -23 -28 -48 -60 -55 -69 -8 -10 -12 -23 -10 -30 3 -7 -5 -24 -16 -38
l-21 -25 17 28 c9 16 15 31 12 33 -5 5 -47 -58 -47 -70 0 -4 5 -4 12 0 7 4 8
3 4 -5 -4 -6 -11 -9 -16 -6 -19 12 -164 -253 -153 -280 4 -12 3 -16 -4 -12
-15 9 -55 -89 -48 -116 5 -16 4 -18 -3 -8 -8 11 -11 10 -16 -6 -4 -11 -4 -29
0 -39 4 -15 4 -16 -4 -5 -14 20 -64 -140 -56 -177 4 -19 3 -23 -4 -13 -21 30
-90 -353 -78 -430 4 -24 2 -39 -4 -39 -6 0 -9 -48 -8 -132 l2 -133 7 120 c5
92 6 76 3 -70 -3 -201 7 -309 46 -484 35 -159 53 -216 61 -195 5 13 7 5 7 -21
-1 -52 61 -222 74 -203 7 9 8 8 6 -7 -2 -11 3 -26 12 -33 8 -8 9 -11 3 -7 -19
9 -17 2 36 -103 60 -117 85 -155 96 -145 4 5 5 3 1 -4 -4 -7 1 -25 11 -40 33
-52 146 -208 158 -218 7 -5 16 -18 21 -27 32 -61 247 -261 429 -399 336 -255
798 -442 1210 -489 344 -39 701 -14 1025 71 558 147 1011 453 1371 925 388
510 555 1203 445 1848 -14 82 -28 152 -31 154 -8 8 -6 -5 15 -128 25 -143 40
-314 38 -445 -1 -82 -3 -69 -10 75 -5 96 -13 193 -18 215 -6 26 -6 -1 -2 -80
4 -66 7 -168 7 -227 0 -58 3 -101 7 -95 10 16 9 -123 -1 -148 -5 -12 -7 8 -5
50 2 56 0 46 -13 -45 -8 -63 -25 -161 -37 -218 -13 -57 -19 -105 -14 -108 4
-3 8 -11 8 -17 0 -9 -3 -9 -8 1 -5 8 -24 -38 -51 -120 -56 -174 -67 -202 -133
-333 -62 -125 -146 -264 -210 -347 -96 -125 -174 -217 -185 -217 -6 -1 -14 -9
-17 -19 -10 -30 -210 -211 -326 -295 -36 -26 -70 -51 -77 -57 -13 -10 -174
-107 -265 -159 -32 -18 -58 -30 -58 -26 0 3 -12 -1 -27 -9 -82 -44 -340 -135
-463 -161 -41 -9 -104 -23 -140 -31 -36 -8 -108 -19 -160 -25 -52 -6 -103 -15
-113 -20 -10 -5 -23 -6 -30 -2 -6 4 -45 6 -87 6 l-75 -1 64 9 c35 4 68 6 72 4
9 -6 219 22 293 39 34 8 97 21 141 30 87 17 295 82 390 123 102 44 297 141
361 180 34 21 97 65 140 98 44 33 90 67 104 76 32 21 201 179 255 239 22 24
51 55 63 68 13 14 56 68 95 121 39 53 74 98 79 99 4 2 8 7 8 11 0 4 23 46 51
92 82 136 161 304 218 464 69 195 116 450 128 705 6 116 -11 384 -27 430 -5
14 -11 43 -14 65 -2 22 -9 55 -15 73 -5 18 -10 35 -10 37 -3 29 -30 133 -42
160 -16 36 -67 200 -64 203 7 7 42 -73 60 -133 9 -33 21 -69 26 -80 5 -11 15
-47 23 -80 32 -135 44 -176 51 -183 8 -8 5 6 -35 169 -51 208 -159 462 -282
664 -85 139 -229 320 -244 307 -4 -4 -4 -2 -1 4 3 6 -12 28 -33 49 -22 22 -40
34 -40 28 0 -6 7 -16 15 -23 8 -7 15 -17 15 -23 0 -5 -9 2 -21 17 -11 14 -18
30 -15 34 3 5 -13 26 -34 47 -22 22 -40 33 -40 26 0 -7 -5 -9 -11 -5 -8 5 -8
9 1 14 20 12 -195 185 -371 297 -216 139 -475 249 -729 311 -227 56 -310 64
-625 67 -159 2 -303 1 -320 -1z m685 -59 c398 -55 806 -227 1145 -484 130 -98
353 -320 442 -441 244 -332 397 -703 457 -1111 21 -138 21 -437 1 -588 -55
-422 -206 -791 -464 -1138 -189 -253 -454 -487 -715 -632 -288 -159 -599 -262
-951 -313 -56 -8 -184 -13 -340 -12 -256 0 -389 14 -570 60 -323 82 -637 233
-905 435 -421 317 -706 738 -835 1234 -62 237 -85 424 -85 690 0 664 279 1265
795 1715 385 335 839 538 1335 595 157 18 526 12 690 -10z m-2350 -870 c0 -8
-5 -17 -11 -21 -8 -4 -9 0 -4 15 3 11 4 21 1 21 -8 0 -47 -68 -51 -91 -3 -13
-14 -32 -25 -44 -15 -14 -20 -16 -18 -5 2 8 11 21 20 28 9 7 15 18 12 25 -6
17 54 100 66 92 6 -3 10 -12 10 -20z m4010 -95 c7 -16 16 -27 21 -24 5 3 9 -2
9 -12 0 -12 -3 -14 -12 -6 -20 16 -50 72 -40 72 5 0 15 -13 22 -30z m60 -95
c0 -5 -5 -3 -10 5 -5 8 -10 20 -10 25 0 6 5 3 10 -5 5 -8 10 -19 10 -25z
m-4266 -52 c-30 -45 -124 -217 -124 -227 0 -5 -3 -7 -6 -3 -10 10 127 257 142
257 4 0 -2 -12 -12 -27z m4331 -43 c21 -24 115 -201 130 -242 25 -73 -1 -37
-59 80 -32 64 -71 138 -87 163 -16 25 -29 52 -29 60 1 8 8 1 17 -16 8 -16 21
-37 28 -45z m-4396 -132 c-8 -14 -14 -18 -17 -10 -4 13 17 46 25 38 3 -2 -1
-15 -8 -28z m-32 -66 c-33 -71 -61 -122 -64 -118 -2 2 4 24 15 48 11 23 23 53
27 66 3 12 11 20 16 16 5 -3 8 -8 6 -12z m-126 -229 c-12 -20 -14 -14 -5 12 4
9 9 14 11 11 3 -2 0 -13 -6 -23z m4 -70 c-13 -43 -26 -95 -29 -115 -4 -21 -12
-38 -17 -38 -6 0 -7 9 -3 23 4 12 8 46 9 75 1 29 6 56 10 60 4 4 5 -9 1 -28
-4 -25 0 -19 14 20 11 30 22 61 25 68 2 6 6 12 9 12 2 0 -6 -35 -19 -77z m-18
25 c-3 -8 -6 -5 -6 6 -1 11 2 17 5 13 3 -3 4 -12 1 -19z m-50 -180 c-3 -8 -6
-5 -6 6 -1 11 2 17 5 13 3 -3 4 -12 1 -19z m22 -40 c-14 -49 -40 -203 -49
-288 l-7 -75 -1 60 c-2 52 31 279 47 333 1 1 5 2 10 2 6 0 6 -13 0 -32z m-32
-20 c-3 -7 -5 -2 -5 12 0 14 2 19 5 13 2 -7 2 -19 0 -25z m-30 -175 c-3 -10
-5 -2 -5 17 0 19 2 27 5 18 2 -10 2 -26 0 -35z m-10 -105 c-2 -13 -4 -5 -4 17
-1 22 1 32 4 23 2 -10 2 -28 0 -40z m20 -120 c-3 -7 -5 -2 -5 12 0 14 2 19 5
13 2 -7 2 -19 0 -25z m0 -85 c-3 -10 -5 -2 -5 17 0 19 2 27 5 18 2 -10 2 -26
0 -35z m0 -90 c-3 -10 -5 -2 -5 17 0 19 2 27 5 18 2 -10 2 -26 0 -35z m0 -45
c-3 -8 -6 -5 -6 6 -1 11 2 17 5 13 3 -3 4 -12 1 -19z m-20 -40 c-3 -8 -6 -5
-6 6 -1 11 2 17 5 13 3 -3 4 -12 1 -19z m33 -33 c0 -36 41 -274 69 -400 43
-197 164 -483 279 -661 17 -28 32 -55 32 -61 0 -5 18 -29 40 -54 22 -24 40
-48 40 -53 0 -36 304 -348 408 -419 31 -22 62 -45 67 -52 9 -11 89 -65 239
-163 27 -18 58 -32 68 -32 10 0 18 -4 18 -8 0 -7 112 -64 150 -76 12 -3 11 -5
-2 -5 -22 -1 -124 37 -141 52 -6 7 -34 23 -62 35 -27 13 -68 37 -90 53 -22 17
-62 44 -89 62 -113 73 -178 122 -245 185 -30 28 -59 52 -64 52 -8 0 -31 22
-153 152 -95 101 -250 329 -335 495 -23 45 -46 80 -51 77 -4 -3 -5 2 -2 10 3
8 0 24 -6 36 -54 102 -156 478 -170 630 -1 12 -3 12 -8 -2 -4 -9 -8 34 -9 95
-2 75 0 107 7 97 5 -8 10 -28 10 -45z m-23 -107 c-3 -7 -5 -2 -5 12 0 14 2 19
5 13 2 -7 2 -19 0 -25z m20 -140 c-3 -8 -6 -5 -6 6 -1 11 2 17 5 13 3 -3 4
-12 1 -19z m4940 -30 c-3 -8 -6 -5 -6 6 -1 11 2 17 5 13 3 -3 4 -12 1 -19z
m-4930 -20 c-3 -7 -5 -2 -5 12 0 14 2 19 5 13 2 -7 2 -19 0 -25z m30 -140 c-3
-7 -5 -2 -5 12 0 14 2 19 5 13 2 -7 2 -19 0 -25z m102 -298 c0 -17 -23 34 -33
71 -3 13 3 6 13 -16 11 -22 20 -47 20 -55z m1347 -1285 c12 -8 37 -18 55 -23
21 -6 26 -11 14 -11 -11 -1 -47 13 -80 29 -33 16 -49 27 -35 24 14 -3 35 -12
46 -19z m166 -61 c59 -22 185 -54 210 -54 13 0 50 -9 84 -19 33 -11 87 -22
120 -26 32 -3 67 -8 78 -11 10 -4 68 -9 130 -14 102 -6 105 -7 36 -9 -88 -1
-322 24 -347 39 -10 5 -67 19 -128 31 -111 21 -231 60 -250 81 -7 8 -4 9 10 3
11 -4 37 -14 57 -21z m796 -131 c-10 -2 -28 -2 -40 0 -13 2 -5 4 17 4 22 1 32
-1 23 -4z"/>
<path d="M7555 7574 c-16 -2 -73 -9 -125 -15 -420 -48 -842 -231 -1185 -514
-261 -216 -463 -472 -604 -768 -99 -208 -137 -345 -172 -632 -21 -176 -22
-198 -10 -354 40 -530 201 -943 509 -1301 422 -490 1031 -770 1672 -770 605 1
1111 185 1550 566 353 306 573 659 674 1086 49 205 59 287 58 518 0 229 -14
349 -63 539 -111 427 -345 799 -692 1097 -318 274 -689 450 -1106 525 -102 18
-434 33 -506 23z m431 -59 c262 -35 536 -123 748 -241 327 -183 589 -416 773
-690 205 -303 347 -727 355 -1055 l1 -74 7 65 c4 43 7 8 6 -105 0 -128 -1
-151 -6 -95 l-7 75 -1 -100 c-1 -220 -1 -225 -17 -219 -11 5 -15 -1 -15 -22 0
-16 -3 -40 -5 -54 -4 -17 0 -14 10 10 11 25 14 28 11 10 -17 -97 -74 -283 -85
-276 -4 3 -7 -10 -7 -29 0 -40 -33 -117 -47 -108 -6 4 -7 1 -3 -6 10 -15 -13
-73 -25 -65 -5 3 -6 -2 -3 -10 6 -14 -71 -167 -134 -266 -181 -287 -522 -585
-859 -754 -229 -114 -498 -189 -793 -219 -27 -3 -24 -4 14 -5 27 -1 47 -4 45
-6 -2 -3 -132 -1 -289 4 -286 9 -391 20 -545 61 -48 12 -72 15 -76 7 -5 -7
-15 -7 -35 0 -29 10 -29 10 -4 12 24 2 24 2 -5 12 -97 34 -266 103 -303 124
-23 14 -48 22 -55 18 -6 -4 -9 -3 -5 1 11 11 -87 66 -105 59 -8 -3 -18 -1 -22
5 -4 7 1 8 12 4 30 -10 4 10 -92 72 -95 62 -268 208 -322 272 -17 21 -59 70
-92 108 -134 152 -260 365 -340 570 -72 184 -123 398 -125 523 -1 49 -4 74 -8
60 -5 -18 -7 -15 -5 12 0 19 -3 42 -7 49 -6 10 -5 12 2 7 7 -4 12 -1 12 8 0 9
-4 16 -10 16 -5 0 -10 16 -10 35 0 19 -4 35 -10 35 -5 0 -8 -6 -5 -12 2 -7 6
-49 9 -93 3 -44 10 -107 15 -140 5 -33 12 -80 16 -105 3 -25 8 -58 11 -75 3
-19 1 -26 -5 -20 -6 6 -17 57 -26 115 -9 58 -20 120 -25 139 -11 42 -11 426 1
461 4 14 5 -38 2 -116 -5 -123 -4 -141 10 -141 13 0 15 19 11 136 -2 93 0 126
6 106 7 -25 8 -22 4 18 -4 33 -2 47 7 47 8 0 10 14 6 48 -3 26 -3 41 0 33 3
-8 16 38 29 102 42 205 136 452 241 630 109 183 351 449 533 584 321 238 678
387 1075 447 125 19 417 20 561 1z m-2342 -1336 c-35 -83 -104 -328 -104 -370
0 -13 -5 -31 -11 -39 -8 -11 -9 1 -5 45 8 91 128 445 150 445 2 0 -11 -36 -30
-81z m-127 -501 c-2 -13 -4 -5 -4 17 -1 22 1 32 4 23 2 -10 2 -28 0 -40z m173
-1168 c7 -12 7 -20 1 -20 -9 0 -41 55 -41 70 0 4 -8 25 -17 46 -9 22 -16 43
-14 48 1 4 -5 19 -13 31 -9 13 -17 37 -18 54 -1 17 -5 31 -8 31 -4 0 -7 6 -8
13 0 6 -4 32 -7 57 -3 26 20 -31 54 -133 34 -98 65 -187 71 -197z m50 -98 c0
-12 74 -141 136 -234 36 -56 20 -46 -25 16 -62 84 -107 166 -129 236 -10 32
-10 33 3 16 8 -11 15 -26 15 -34z m228 -362 c13 -16 19 -30 14 -30 -4 0 -16
14 -25 30 -10 17 -16 30 -14 30 2 0 13 -13 25 -30z"/>
<path d="M8933 6678 c-117 -88 -264 -207 -413 -333 -52 -45 -131 -110 -175
-145 -44 -35 -125 -103 -180 -150 -114 -98 -809 -671 -1048 -864 l-48 -39
-117 114 c-301 294 -524 455 -763 549 -112 44 -136 50 -201 50 -83 0 -118 -16
-118 -55 0 -18 16 -33 74 -69 196 -122 402 -332 642 -656 103 -138 350 -514
414 -629 19 -35 45 -71 57 -79 26 -16 31 -12 135 118 48 59 142 169 358 419
117 136 565 639 634 711 49 52 208 227 261 286 6 6 35 38 65 70 31 33 112 122
180 198 69 77 187 208 262 291 144 159 198 223 198 235 0 4 -9 19 -21 34 -37
47 -72 37 -196 -56z m167 37 c10 -12 -10 -38 -118 -157 -71 -79 -176 -195
-233 -259 -124 -137 -482 -531 -555 -609 -44 -47 -160 -177 -479 -535 -112
-126 -288 -327 -320 -366 -17 -20 -84 -98 -150 -175 -66 -77 -133 -156 -149
-176 l-29 -36 -27 57 c-30 62 -195 321 -331 518 -249 360 -541 673 -737 787
-88 52 -83 61 37 56 144 -6 422 -152 659 -347 57 -47 170 -150 252 -230 l149
-144 89 73 c49 40 133 109 187 153 128 104 664 547 950 785 471 392 579 480
667 546 55 41 105 74 112 74 8 0 19 -7 26 -15z"/>
<path d="M7223 6530 c-237 -3 -356 -9 -363 -16 -6 -6 -10 -38 -8 -75 l3 -63
65 -18 c36 -10 83 -22 106 -28 49 -12 100 -45 128 -83 20 -28 21 -40 24 -475
3 -448 4 -461 37 -462 12 0 155 115 307 247 l106 92 7 107 c4 58 6 154 5 213
-2 58 -2 159 -1 224 l1 117 103 0 c157 0 301 -29 415 -85 52 -25 99 -45 105
-45 13 0 137 93 196 148 l45 41 -25 20 c-24 20 -185 81 -264 100 -84 20 -307
41 -470 43 -93 2 -328 1 -522 -2z m829 -51 c57 -6 144 -21 193 -34 94 -24 205
-68 205 -82 0 -4 -13 -17 -29 -28 -16 -11 -58 -41 -93 -67 l-64 -47 -82 40
c-138 67 -334 104 -512 97 l-75 -3 -1 -344 -1 -343 -94 -80 c-101 -87 -276
-228 -281 -228 -2 0 -3 197 -3 438 l0 438 -26 40 c-28 42 -101 87 -159 99 -19
3 -59 13 -87 21 -53 14 -53 15 -53 54 l0 40 530 0 c318 0 570 -4 632 -11z"/>
<path d="M8619 6051 c-46 -52 -112 -126 -147 -165 -51 -58 -62 -76 -57 -96 3
-14 8 -83 11 -155 10 -207 -27 -335 -122 -428 -92 -90 -217 -133 -414 -143
-63 -3 -125 -7 -136 -9 -22 -5 -114 -109 -114 -129 0 -19 30 -21 320 -20 316
0 367 8 535 88 164 78 307 239 360 409 63 197 54 350 -33 610 -59 174 -80 178
-203 38z m155 -13 c53 -143 68 -209 73 -338 5 -105 2 -139 -15 -206 -69 -274
-245 -446 -531 -521 -87 -23 -120 -26 -356 -30 l-260 -5 38 39 37 39 138 12
c154 13 228 29 320 72 75 35 168 124 199 191 48 103 65 273 42 433 -12 88 -19
74 110 216 43 47 94 104 115 128 21 23 44 42 51 42 7 0 25 -32 39 -72z"/>
<path d="M5571 5004 c0 -11 3 -14 6 -6 3 7 2 16 -1 19 -3 4 -6 -2 -5 -13z"/>
<path d="M9811 4954 c0 -11 3 -14 6 -6 3 7 2 16 -1 19 -3 4 -6 -2 -5 -13z"/>
<path d="M7545 4855 c-47 -47 -214 -242 -332 -387 -20 -25 -36 -60 -43 -94
-22 -104 -106 -164 -280 -199 -19 -4 -41 -12 -47 -17 -17 -13 -17 -120 -1
-136 16 -16 1109 -17 1139 -2 15 9 19 21 19 63 0 29 -4 58 -8 65 -5 7 -33 17
-64 22 -177 28 -247 72 -280 173 -6 19 -11 137 -12 283 -1 220 -4 253 -18 268
-16 15 -21 13 -73 -39z m63 -538 c38 -88 123 -143 270 -173 l82 -17 0 -34 0
-33 -545 0 -545 0 0 34 0 34 80 21 c107 29 143 45 185 82 44 39 62 72 76 141
8 36 22 64 44 88 34 37 280 331 312 373 18 24 18 20 23 -232 4 -169 10 -266
18 -284z"/>
<path d="M8078 7793 c6 -2 18 -2 25 0 6 3 1 5 -13 5 -14 0 -19 -2 -12 -5z"/>
<path d="M7160 7780 c-20 -6 -21 -8 -5 -8 11 0 31 4 45 8 20 6 21 8 5 8 -11 0
-31 -4 -45 -8z"/>
<path d="M8148 7783 c6 -2 18 -2 25 0 6 3 1 5 -13 5 -14 0 -19 -2 -12 -5z"/>
<path d="M8208 7773 c6 -2 18 -2 25 0 6 3 1 5 -13 5 -14 0 -19 -2 -12 -5z"/>
<path d="M7098 7763 c6 -2 18 -2 25 0 6 3 1 5 -13 5 -14 0 -19 -2 -12 -5z"/>
<path d="M8258 7763 c7 -3 16 -2 19 1 4 3 -2 6 -13 5 -11 0 -14 -3 -6 -6z"/>
<path d="M6910 7716 c-74 -23 -155 -52 -180 -64 -50 -25 -41 -22 75 19 44 16
123 42 175 58 52 16 88 29 80 29 -8 0 -76 -19 -150 -42z"/>
<path d="M8345 7744 c28 -7 55 -13 60 -13 17 2 -69 27 -90 27 -11 0 3 -6 30
-14z"/>
<path d="M8435 7720 c27 -12 43 -12 25 0 -8 5 -22 9 -30 9 -10 0 -8 -3 5 -9z"/>
<path d="M8585 7671 c44 -16 81 -28 83 -26 4 4 -99 43 -135 50 -15 3 8 -8 52
-24z"/>
<path d="M6640 7615 c-14 -8 -20 -14 -15 -14 6 0 21 6 35 14 14 8 21 14 15 14
-5 0 -21 -6 -35 -14z"/>
<path d="M8710 7620 c8 -5 20 -10 25 -10 6 0 3 5 -5 10 -8 5 -19 10 -25 10 -5
0 -3 -5 5 -10z"/>
<path d="M6500 7549 c-52 -27 -99 -55 -105 -60 -8 -9 200 96 214 108 2 1 0 3
-5 3 -5 0 -52 -23 -104 -51z"/>
<path d="M8800 7585 c0 -7 61 -37 66 -33 2 3 -12 12 -31 21 -19 9 -35 15 -35
12z"/>
<path d="M8880 7546 c0 -3 9 -10 20 -16 11 -6 20 -8 20 -6 0 3 -9 10 -20 16
-11 6 -20 8 -20 6z"/>
<path d="M8950 7506 c0 -3 14 -12 30 -21 17 -9 30 -13 30 -11 0 3 -13 12 -30
21 -16 9 -30 13 -30 11z"/>
<path d="M6253 7400 c-136 -92 -173 -119 -157 -120 6 0 17 7 25 16 7 8 67 52
133 96 130 87 132 88 123 88 -3 0 -59 -36 -124 -80z"/>
<path d="M9024 7461 c4 -6 22 -18 39 -27 30 -14 31 -14 12 1 -30 25 -59 39
-51 26z"/>
<path d="M9100 7416 c0 -2 14 -14 30 -26 17 -12 30 -19 30 -16 0 2 -13 14 -30
26 -16 12 -30 19 -30 16z"/>
<path d="M9194 7352 c8 -13 66 -56 66 -49 0 3 -17 17 -37 33 -20 15 -33 23
-29 16z"/>
<path d="M9270 7297 c0 -3 35 -34 78 -70 271 -225 475 -484 622 -789 61 -128
146 -357 165 -446 4 -18 9 -31 12 -28 3 2 -7 46 -22 98 -139 483 -428 907
-837 1227 -10 7 -18 11 -18 8z"/>
<path d="M6034 7239 c-49 -38 -49 -39 -38 -39 9 1 91 70 82 70 -3 0 -23 -14
-44 -31z"/>
<path d="M5949 7163 l-24 -28 28 24 c15 14 27 26 27 28 0 8 -8 1 -31 -24z"/>
<path d="M10156 5753 c9 -38 14 -42 14 -10 0 14 -5 29 -10 32 -7 4 -8 -3 -4
-22z"/>
</g>
</svg>
