<?xml version="1.0" standalone="no"?>
<!DOCTYPE svg PUBLIC "-//W3C//DTD SVG 20010904//EN"
 "http://www.w3.org/TR/2001/REC-SVG-20010904/DTD/svg10.dtd">
<svg version="1.0" xmlns="http://www.w3.org/2000/svg"
 width="1536.000000pt" height="1024.000000pt" viewBox="0 0 1536.000000 1024.000000"
 preserveAspectRatio="xMidYMid meet">

<g transform="translate(0.000000,1024.000000) scale(0.100000,-0.100000)"
fill="#000000" stroke="none">
<path d="M7550 7533 c-860 -58 -1570 -581 -1865 -1372 -99 -266 -143 -595
-115 -859 48 -438 176 -762 433 -1090 160 -204 378 -380 652 -523 301 -158
602 -234 965 -245 612 -19 1171 196 1585 611 230 229 375 450 479 728 40 107
88 289 107 412 20 119 17 466 -5 585 -68 378 -220 714 -448 985 -91 109 -236
250 -340 332 -94 74 -266 179 -390 238 -320 151 -703 223 -1058 198z m415 -38
c469 -58 881 -262 1225 -605 166 -165 281 -328 386 -545 152 -315 214 -609
201 -950 -20 -504 -222 -963 -581 -1318 -191 -190 -452 -362 -693 -458 -420
-167 -943 -197 -1396 -80 -433 113 -861 393 -1117 732 -363 482 -489 1124
-335 1705 81 302 249 616 448 838 343 380 781 611 1295 681 134 18 422 18 567
0z"/>
<path d="M7393 7344 c-550 -80 -1056 -404 -1359 -869 -185 -285 -293 -647
-294 -982 -1 -833 519 -1533 1334 -1794 368 -119 850 -112 1251 17 201 65 451
199 615 331 148 119 312 302 415 463 283 441 351 1003 183 1530 -58 184 -176
407 -298 565 -308 398 -767 668 -1261 740 -132 19 -455 19 -586 -1z m524 -19
c172 -22 263 -42 390 -86 692 -239 1175 -815 1278 -1524 17 -117 19 -360 5
-472 -51 -383 -214 -723 -483 -1009 -109 -116 -273 -246 -408 -324 -302 -174
-602 -256 -974 -267 -444 -13 -795 87 -1165 333 -121 80 -370 318 -441 423
-173 251 -272 481 -319 741 -27 148 -37 404 -21 536 59 477 283 897 638 1192
232 194 453 313 738 398 74 23 270 59 360 67 104 9 295 6 402 -8z"/>
<path d="M8814 6680 c-26 -10 -110 -80 -329 -276 -219 -196 -519 -459 -630
-554 -49 -41 -111 -96 -139 -121 -28 -26 -139 -122 -246 -214 -107 -92 -217
-187 -243 -211 -28 -26 -54 -41 -60 -37 -7 4 -77 66 -157 138 -156 141 -292
256 -380 322 -126 95 -300 163 -377 148 -30 -5 -34 -9 -31 -33 2 -20 28 -50
95 -110 79 -71 141 -136 257 -272 91 -107 445 -595 497 -686 41 -72 63 -90 92
-77 13 6 64 57 113 113 125 145 277 314 348 390 34 36 124 135 201 220 77 85
167 184 201 220 154 166 304 335 435 491 35 41 122 143 193 225 71 82 150 177
177 212 42 56 47 66 37 87 -13 29 -26 35 -54 25z m26 -38 c0 -19 -80 -127
-177 -238 -28 -32 -127 -147 -219 -254 -142 -165 -265 -304 -475 -535 -20 -22
-65 -72 -100 -112 -35 -39 -154 -170 -264 -290 -110 -120 -246 -270 -301 -333
-56 -63 -115 -128 -132 -143 l-30 -28 -19 28 c-11 15 -36 56 -56 90 -19 34
-94 142 -165 240 -283 389 -442 580 -577 694 -47 39 -85 75 -85 80 0 49 242
-32 358 -118 79 -59 265 -217 414 -352 87 -77 160 -141 164 -141 3 0 34 26 68
58 34 31 104 93 156 137 172 144 750 650 1150 1006 254 226 290 252 290 211z"/>
<path d="M6960 6401 c-27 -51 -9 -72 76 -91 27 -6 77 -25 111 -41 101 -48 97
-31 103 -464 l5 -370 22 -3 c16 -2 42 13 85 50 148 125 225 194 250 222 l27
31 1 273 0 272 68 0 c37 0 107 -5 155 -10 77 -8 99 -15 186 -61 l99 -52 82 73
c66 60 80 78 78 99 -2 22 -12 29 -58 44 -111 38 -225 44 -762 46 -504 1 -517
1 -528 -18z m1070 -11 c181 -22 284 -54 254 -79 -5 -4 -39 -36 -77 -71 l-67
-63 -23 20 c-31 29 -122 73 -182 89 -30 8 -104 14 -182 14 l-133 0 0 -279 0
-279 -84 -77 c-46 -41 -123 -108 -172 -146 l-89 -71 -5 380 -5 381 -28 29
c-39 40 -121 80 -194 94 -60 11 -76 24 -66 56 6 15 924 17 1053 2z"/>
<path d="M8418 5998 c-57 -62 -112 -124 -121 -138 -11 -18 -16 -51 -16 -120 0
-57 -7 -117 -17 -150 -21 -71 -68 -161 -102 -193 -75 -72 -223 -133 -380 -157
-74 -12 -105 -30 -100 -59 6 -31 65 -40 253 -37 164 3 187 6 265 31 108 35
170 66 242 123 144 112 218 272 218 468 0 64 -6 130 -16 169 -20 80 -71 169
-100 173 -15 2 -48 -26 -126 -110z m146 63 c26 -29 66 -163 72 -245 13 -146
-44 -325 -137 -429 -87 -100 -216 -171 -363 -202 -143 -29 -403 -28 -413 2 -6
17 25 28 137 48 296 52 449 229 450 517 0 98 -8 84 134 241 43 48 84 87 91 87
6 0 20 -9 29 -19z"/>
<path d="M7451 4958 c-165 -167 -221 -240 -221 -289 0 -46 -26 -70 -115 -103
-114 -43 -160 -69 -163 -92 -6 -44 0 -44 509 -42 l484 3 3 32 c4 36 -8 45 -91
70 -91 27 -163 69 -188 110 -22 36 -24 50 -29 228 -3 105 -9 196 -13 203 -19
28 -51 6 -176 -120z m159 -55 c1 -176 9 -233 37 -272 31 -41 108 -88 186 -113
80 -25 97 -34 97 -54 0 -12 -78 -14 -475 -14 -486 0 -491 0 -467 36 4 6 32 19
62 29 151 50 215 99 203 155 -5 25 2 39 43 87 88 103 286 303 300 303 11 0 14
-30 14 -157z"/>
</g>
</svg>
