<?xml version="1.0" standalone="no"?>
<!DOCTYPE svg PUBLIC "-//W3C//DTD SVG 20010904//EN"
 "http://www.w3.org/TR/2001/REC-SVG-20010904/DTD/svg10.dtd">
<svg version="1.0" xmlns="http://www.w3.org/2000/svg"
 width="1536.000000pt" height="1024.000000pt" viewBox="0 0 1536.000000 1024.000000"
 preserveAspectRatio="xMidYMid meet">

<g transform="translate(0.000000,1024.000000) scale(0.100000,-0.100000)"
fill="#000000" stroke="none">
<path d="M8350 6330 c-114 -24 -170 -44 -263 -93 -178 -94 -323 -245 -408
-422 -56 -117 -75 -184 -90 -315 -23 -207 33 -433 152 -608 120 -175 333 -326
544 -384 108 -29 404 -33 503 -6 202 56 379 165 494 304 l48 59 -50 3 c-50 3
-53 2 -113 -54 -127 -118 -278 -195 -447 -230 -110 -22 -300 -15 -413 16 -421
113 -687 524 -613 947 49 279 222 507 477 628 120 56 214 77 364 78 149 2 241
-15 365 -67 154 -65 311 -200 408 -351 82 -129 78 -125 122 -125 22 0 40 5 40
11 0 23 -92 188 -143 254 -105 138 -301 277 -462 329 -149 47 -366 58 -515 26z"/>
<path d="M5225 5926 c-88 -19 -100 -24 -103 -44 -3 -17 2 -22 17 -22 12 0 30
-9 41 -20 18 -18 20 -33 20 -130 0 -60 -2 -110 -4 -110 -2 0 -23 7 -46 15
-104 37 -228 6 -302 -73 -69 -74 -93 -143 -93 -277 0 -100 3 -116 28 -170 50
-107 116 -154 215 -155 64 0 149 37 186 81 25 30 25 30 31 7 2 -13 6 -36 8
-53 3 -23 9 -29 23 -28 10 2 67 6 127 9 118 8 134 19 70 51 -23 11 -40 28 -44
43 -4 14 -7 222 -8 463 l-1 437 -32 -1 c-18 -1 -78 -11 -133 -23z m-55 -391
l30 -29 0 -203 0 -204 -26 -24 c-38 -35 -85 -42 -131 -18 -67 35 -99 142 -90
293 7 105 22 154 61 192 27 27 35 30 78 26 36 -4 57 -13 78 -33z"/>
<path d="M8909 5789 c-143 -115 -342 -284 -504 -429 -104 -93 -81 -94 -188 1
-155 138 -219 193 -241 206 -20 12 -116 18 -116 8 0 -3 51 -67 113 -142 62
-76 151 -188 199 -249 47 -60 94 -116 103 -124 15 -12 27 -3 114 86 53 54 240
247 416 427 176 181 322 333 323 338 2 5 -9 9 -25 9 -23 0 -68 -31 -194 -131z"/>
<path d="M2750 5851 c0 -14 6 -21 20 -21 35 0 69 -22 80 -53 15 -46 13 -705
-3 -737 -8 -15 -27 -28 -52 -36 -23 -6 -41 -18 -43 -27 -3 -15 17 -17 223 -17
210 0 226 1 223 18 -2 10 -14 18 -28 20 -62 6 -101 23 -110 48 -6 14 -10 86
-10 160 l0 134 88 0 c175 0 271 48 321 160 24 54 28 164 7 214 -22 52 -72 102
-128 127 -51 23 -64 24 -320 27 -265 3 -268 3 -268 -17z m484 -70 c42 -39 59
-99 54 -188 -7 -143 -51 -193 -170 -193 l-68 0 0 206 0 206 79 -3 c67 -4 83
-8 105 -28z"/>
<path d="M8172 5819 c2 -17 14 -25 50 -34 26 -6 53 -17 61 -24 26 -21 37 -96
37 -240 0 -80 4 -141 9 -141 9 0 58 35 138 99 l33 26 0 132 c0 123 1 132 20
138 30 9 157 -4 219 -23 53 -16 53 -16 72 6 17 22 16 43 -4 70 -7 9 -84 12
-324 12 l-314 0 3 -21z"/>
<path d="M6421 5800 l-84 -27 -1 -77 c-1 -86 -8 -96 -68 -96 -35 0 -38 -2 -38
-30 0 -29 1 -30 49 -30 l49 0 4 -247 c3 -217 5 -252 21 -281 36 -66 165 -93
253 -53 50 23 104 85 97 112 -5 18 -7 17 -35 -6 -38 -32 -97 -34 -124 -4 -17
19 -19 41 -22 250 l-3 229 90 0 91 0 0 30 c0 34 2 33 -107 30 l-73 -2 0 116
c0 64 -3 116 -7 115 -5 -1 -46 -13 -92 -29z"/>
<path d="M11255 5792 l-80 -27 -3 -83 -3 -82 -53 0 -53 0 5 -30 c4 -29 6 -30
53 -30 l49 0 0 -242 c0 -267 4 -289 62 -332 39 -28 135 -34 193 -12 49 19 115
85 115 116 0 27 -6 25 -47 -10 -49 -43 -92 -40 -118 11 -12 22 -15 75 -15 249
l0 220 91 0 90 0 -3 32 -3 31 -87 -2 -88 -2 0 110 c0 82 -3 111 -12 111 -7 0
-49 -13 -93 -28z"/>
<path d="M8903 5630 c-70 -68 -73 -72 -73 -118 0 -48 -28 -122 -58 -155 -20
-23 -105 -67 -127 -67 -9 0 -27 -7 -41 -16 -19 -13 -22 -20 -13 -30 16 -19
151 -18 217 1 103 31 178 118 189 219 6 53 -6 236 -15 236 -4 0 -40 -32 -79
-70z"/>
<path d="M3616 5597 c-113 -33 -136 -50 -92 -66 13 -6 30 -19 35 -30 7 -12 11
-105 11 -244 0 -245 2 -237 -62 -265 -62 -26 -28 -32 177 -32 167 0 205 3 205
14 0 8 -16 16 -39 20 -21 3 -49 14 -62 25 -24 19 -24 20 -24 241 0 221 0 222
24 241 40 33 59 25 86 -36 24 -56 32 -61 90 -56 11 1 32 15 48 32 46 50 34
144 -22 174 -66 34 -159 6 -206 -62 l-25 -38 0 58 c0 69 6 68 -144 24z"/>
<path d="M4253 5612 c-68 -24 -117 -63 -158 -125 -45 -69 -59 -130 -53 -230 7
-104 35 -173 95 -228 74 -68 120 -84 248 -84 127 0 175 17 244 87 76 75 102
166 90 304 -12 122 -80 218 -188 267 -66 30 -207 34 -278 9z m196 -65 c38 -35
59 -95 70 -205 23 -217 -29 -352 -134 -352 -96 0 -145 99 -145 294 1 167 26
251 83 280 40 20 93 13 126 -17z"/>
<path d="M6950 5621 c-129 -42 -209 -136 -231 -269 -28 -170 44 -319 186 -384
43 -20 66 -23 160 -23 97 0 116 3 160 25 128 63 192 182 183 340 -8 132 -72
231 -186 287 -44 22 -70 27 -150 29 -53 2 -108 0 -122 -5z m172 -64 c27 -17
66 -101 79 -172 18 -95 7 -261 -20 -317 -27 -57 -74 -83 -135 -75 -86 12 -129
114 -129 307 0 63 5 134 12 157 13 47 53 100 85 114 25 10 80 3 108 -14z"/>
<path d="M9168 5597 c-120 -31 -143 -48 -94 -67 52 -20 56 -37 56 -268 0 -128
-4 -221 -10 -233 -6 -10 -26 -26 -45 -34 -70 -29 -41 -35 165 -35 164 0 200 3
200 14 0 8 -15 17 -36 21 -20 3 -47 17 -60 30 -24 24 -24 27 -24 221 0 217 9
258 58 271 27 6 52 -16 52 -46 0 -9 9 -27 19 -40 27 -36 82 -34 119 2 23 23
27 36 27 83 0 50 -3 58 -33 85 -59 53 -150 35 -215 -42 l-37 -44 0 58 c0 39
-4 57 -12 56 -7 -1 -66 -15 -130 -32z"/>
<path d="M9803 5609 c-75 -29 -144 -95 -178 -171 -25 -55 -29 -75 -29 -153 1
-111 26 -182 86 -244 63 -66 134 -95 243 -99 117 -5 187 19 262 91 71 67 95
131 97 253 1 83 -2 96 -32 157 -43 87 -104 141 -190 167 -84 26 -189 26 -259
-1z m205 -61 c97 -90 108 -442 16 -529 -21 -19 -36 -24 -81 -24 -49 0 -58 3
-83 32 -35 39 -48 81 -60 197 -19 170 16 311 85 343 39 17 92 9 123 -19z"/>
<path d="M10430 5601 c-87 -20 -116 -31 -118 -44 -2 -9 2 -17 10 -17 7 0 24
-9 37 -19 l25 -19 -1 -226 c-1 -124 -4 -234 -7 -244 -4 -10 -22 -26 -41 -35
-65 -31 -42 -37 140 -37 142 0 175 3 175 14 0 7 -14 19 -30 26 -17 7 -35 21
-40 31 -6 10 -10 112 -10 227 l0 210 35 31 c46 40 112 45 149 13 40 -35 46
-73 46 -277 0 -195 0 -196 -25 -220 -13 -14 -31 -25 -40 -25 -8 0 -15 -7 -15
-15 0 -13 26 -15 175 -15 148 0 175 2 175 15 0 8 -11 17 -25 21 -51 13 -55 32
-55 241 0 105 -5 215 -11 243 -20 93 -94 149 -197 150 -63 0 -111 -18 -169
-66 l-43 -35 0 50 c0 35 -4 51 -12 50 -7 0 -65 -13 -128 -28z"/>
<path d="M11800 5621 c-91 -28 -168 -94 -209 -181 -23 -48 -26 -68 -26 -160 0
-97 2 -110 30 -164 62 -123 179 -183 338 -174 98 5 157 29 220 87 70 65 92
124 92 252 0 101 -2 109 -35 175 -59 116 -164 175 -308 173 -42 0 -88 -4 -102
-8z m144 -55 c41 -17 80 -79 95 -154 14 -68 14 -226 0 -293 -22 -100 -100
-150 -182 -115 -31 12 -43 26 -64 73 -23 51 -27 74 -31 189 -3 100 -1 143 12
186 32 110 89 148 170 114z"/>
<path d="M5655 5610 c-27 -5 -80 -9 -116 -9 -50 -1 -68 -5 -73 -16 -4 -11 3
-19 22 -27 63 -27 62 -23 62 -234 0 -221 9 -281 51 -329 39 -44 86 -59 165
-52 68 5 129 34 174 82 l25 27 11 -49 10 -48 42 0 c171 2 212 6 212 18 0 7
-19 21 -42 32 l-43 20 -3 297 -2 298 -58 -6 c-31 -3 -97 -9 -147 -12 -68 -5
-90 -10 -90 -21 0 -8 14 -19 32 -25 74 -25 73 -23 73 -249 0 -202 0 -204 -24
-226 -30 -28 -96 -44 -130 -31 -14 5 -33 21 -43 37 -16 24 -18 56 -21 280 -3
230 -5 253 -20 252 -9 -1 -39 -5 -67 -9z"/>
<path d="M8415 5098 c-110 -114 -148 -138 -214 -138 -14 0 -21 -6 -21 -20 0
-19 7 -20 246 -20 228 0 245 1 242 17 -2 12 -16 20 -40 24 -47 7 -86 33 -93
62 -3 12 -6 59 -7 105 l-3 83 -110 -113z"/>
</g>
</svg>
